<?xml version="1.0" encoding="UTF-8" standalone="no"?><!DOCTYPE svg PUBLIC "-//W3C//DTD SVG 1.1//EN" "http://www.w3.org/Graphics/SVG/1.1/DTD/svg11.dtd"><svg width="100%" height="100%" viewBox="0 0 200 200" version="1.1" xmlns="http://www.w3.org/2000/svg" xmlns:xlink="http://www.w3.org/1999/xlink" xml:space="preserve" xmlns:serif="http://www.serif.com/" style="fill-rule:evenodd;clip-rule:evenodd;stroke-linejoin:round;stroke-miterlimit:2;"><g id="Background"><path d="M39.8,166.728c16.998,-0.285 94.12,-0.494 116.428,0.072c13.332,0.338 10.293,-5.552 10.295,-18.884c0.008,-55.309 -0.117,-55.237 0.278,-70.811c0.351,-13.816 -10.733,-8.578 -14.795,-12.444c-1.661,-1.581 -4.562,-12.462 3.808,-14.331c0.163,-0.036 20.641,-0.509 21.055,-0.403c6.801,1.74 6.211,3.38 6.32,10.437c0.259,16.695 -0.456,84.136 0.288,112.529c0.35,13.355 -5.562,10.294 -18.894,10.302c-115.881,0.071 -115.832,-0.287 -137.477,0.281c-13.355,0.35 -10.294,-5.562 -10.302,-18.894c-0.05,-82.405 0.29,-82.362 -0.281,-104.144c-0.305,-11.65 6.259,-10.149 23.038,-10.583c14.845,-0.383 9.823,13.362 8.434,14.805c-3.913,4.066 -14.285,-2.841 -14.515,12.37c-0.599,39.656 0.725,39.573 -0.281,79.196c-0.257,10.138 5.607,9.507 6.6,10.5Z"/><path d="M108.345,89.754c-0.463,6.215 -3.34,8.397 2.61,10.308c4.028,1.294 3.684,-0.516 6.48,-3.625c12.161,-13.524 16.431,3.787 16.104,5.101c-0.742,2.983 -16.223,17.706 -25.795,27.126c-9.517,9.365 -11.744,3.758 -23.876,-8.365c-12.616,-12.607 -21.8,-18.396 -14.755,-26.191c0.426,-0.471 3.411,-3.774 7.455,-2.723c0.866,0.225 2.271,0.59 8.34,7.444c2.327,2.627 3.02,2.574 5.775,0.362c2.73,-2.192 0.841,-2.971 0.841,-30.44c-0,-21.907 -0.599,-30.554 2.148,-33.413c1.606,-1.671 12.465,-4.55 14.332,3.81c0.882,3.951 -0.196,3.996 0.342,50.608Z" style="fill-opacity:1;"/></g></svg>