<?xml version="1.0" encoding="UTF-8" standalone="no"?><!DOCTYPE svg PUBLIC "-//W3C//DTD SVG 1.1//EN" "http://www.w3.org/Graphics/SVG/1.1/DTD/svg11.dtd"><svg width="100%" height="100%" viewBox="0 0 200 200" version="1.1" xmlns="http://www.w3.org/2000/svg" xmlns:xlink="http://www.w3.org/1999/xlink" xml:space="preserve" xmlns:serif="http://www.serif.com/" style="fill-rule:evenodd;clip-rule:evenodd;stroke-linejoin:round;stroke-miterlimit:2;"><g id="Background"><path d="M149.937,56.441c1.131,-1.176 0.938,-3.259 2.069,-4.435c1.703,-1.771 7.674,-1.858 8.359,-1.868c16.686,-0.245 22.629,-2.299 22.824,10.227c0.259,16.695 -0.456,84.136 0.288,112.529c0.35,13.355 -5.562,10.294 -18.894,10.302c-115.881,0.071 -115.832,-0.287 -137.477,0.281c-13.355,0.35 -10.294,-5.562 -10.302,-18.894c-0.05,-82.405 0.29,-82.362 -0.281,-104.144c-0.305,-11.65 6.259,-10.149 23.038,-10.583c14.855,-0.383 9.79,13.393 8.434,14.805c-3.903,4.066 -14.285,-2.845 -14.515,12.37c-0.599,39.656 0.725,39.573 -0.281,79.196c-0.338,13.332 5.552,10.293 18.884,10.295c88.046,0.013 88.03,-0.131 104.144,0.278c13.332,0.338 10.293,-5.552 10.295,-18.884c0.008,-55.309 -0.117,-55.237 0.278,-70.811c0.351,-13.817 -10.736,-8.578 -14.795,-12.444c-0.966,-0.92 -1.621,-3.523 -1.704,-3.85c-0.551,-2.189 0.18,-2.206 -0.365,-4.371Z"/><path d="M112.627,29.04c19.64,19.637 19.814,20.197 20.541,22.525c1.923,6.163 -6.468,14.279 -13.707,7.955c-0.731,-0.639 -3.852,-4.181 -4.178,-4.551c-2.613,-2.966 -3.527,-2.884 -6.328,-0.105c-2.328,2.309 -0.503,2.909 -0.477,22.22c0.04,30.062 0.389,34.939 -2.148,37.58c-1.606,1.671 -12.465,4.55 -14.332,-3.81c-0.316,-1.416 -0.233,-42.358 -0.089,-46.251c0.239,-6.433 1.886,-7.012 -0.863,-9.739c-4.823,-4.784 -5.071,-0.091 -10.506,4.657c-7.006,6.12 -18.821,-1.543 -11.704,-11.534c0.239,-0.336 19.115,-19.204 20.781,-20.87c7.234,-7.231 8.636,-10.521 16.584,-4.142c0.551,0.443 0.476,0.449 6.428,6.065Z" style="fill-opacity:1;"/></g></svg>