<?xml version="1.0" encoding="UTF-8" standalone="no"?><!DOCTYPE svg PUBLIC "-//W3C//DTD SVG 1.1//EN" "http://www.w3.org/Graphics/SVG/1.1/DTD/svg11.dtd"><svg width="100%" height="100%" viewBox="0 0 48 48" version="1.1" xmlns="http://www.w3.org/2000/svg" xmlns:xlink="http://www.w3.org/1999/xlink" xml:space="preserve" xmlns:serif="http://www.serif.com/" style="fill-rule:evenodd;clip-rule:evenodd;stroke-linejoin:round;stroke-miterlimit:2;"><g><path d="M3.726,10.836c-0.437,-0.22 -4.322,-2.177 -3.341,-5.436c0.027,-0.089 1.951,-2.332 2.441,0.584c1.35,8.03 15.71,-12.334 21.749,2.369c1.623,3.951 -1.664,5.212 -2.085,2.742c-0.766,-4.494 -10.9,-4.151 -10.892,1.085c0.005,3.202 -0.282,10.037 1.282,9.487c3.137,-1.102 8.683,-7.16 7.132,0.008c-1.194,5.523 1.857,9.724 -1.965,7.869c-0.534,-0.259 -2.769,-3.776 -5.667,-2.776c-0.776,0.268 -2.125,10.659 0.968,11.904c3.687,1.484 7.741,1.756 8.022,-0.689c0.461,-4.009 2.624,-1.737 2.61,-0.032c-0.005,0.6 -0.975,5.182 -3.946,6.55c-7.331,3.378 -14.16,-7.889 -17.641,-3.388c-1.763,2.279 -4.67,-3.173 0.66,-4.523c1.927,-0.488 1.314,-5.801 1.314,-10.964c0.001,-13.492 0.253,-13.681 -0.641,-14.791l5.621,8.627c0.34,7.695 2.833,-8.443 0.362,-7.97c-0.292,0.056 -0.292,3.238 -0.362,7.97l-5.621,-8.627l6.663,18.145c-0.449,-4.407 -1.045,0.467 -1.045,0.569c-0.004,0.513 -0.053,6.381 0.373,6.397c0.661,0.025 0.671,-6.406 0.672,-6.966l-6.663,-18.145Z" style="fill:#be8100;fill-opacity:0.99;"/><path d="M29.346,16.149c0.192,0.353 0.385,0.706 0.577,1.058c0.522,1.112 0.595,1.534 0.619,1.676c0.561,3.257 0.712,3.941 -2.185,5.063c-3.799,1.471 -4.303,9.175 -2.031,8.565c3.733,-1.002 -1.002,-4.129 1.042,-6.277c3.995,-4.201 3.412,6.92 3.648,7.076c2.281,1.51 0.456,-8.777 0.461,-8.796c0.985,-3.628 0.81,-3.674 -0.023,-7.293c-0.376,-1.634 0.607,-1.205 5.162,-1.363c2.436,-0.085 2.164,1.852 4.596,1.166c2.339,-0.659 3.303,1.331 3.771,1.66c4.201,2.949 1.203,12.913 2.628,15.815c2.182,4.443 -5.538,2.49 -4.766,0.124c1.993,-6.109 0.32,-14.158 -0.083,-14.558c-1.732,-1.719 -0.361,2.974 -0.549,3.268c-0.498,0.777 -1.065,1.663 -0.779,11.809c0.079,2.797 4.192,3.041 1.722,4.84c-4.541,3.308 -3.248,-5.777 -4.617,-7.511c-2.922,-3.702 0.482,-12.756 -1.919,-13.594c-2.08,-0.725 0.51,2.172 -0.327,4.074c-0.96,2.181 -0.4,10.312 -0.313,10.573c0.215,0.639 2.026,3.163 -1.985,2.36c-6.181,-1.238 -14.17,1.466 -12.566,-7.496c0.429,-2.399 -0.962,-2.39 -0.101,-6.067c0.66,-2.822 -0.87,-4.929 0.013,-6.024c3.292,-4.087 7.499,-0.571 8.006,-0.146l-2.796,3.313c-0.012,-0.238 -0.142,-2.805 -0.761,-2.866c-0.11,-0.011 -0.764,-0.076 -0.815,1.203c-0.228,5.691 -0.651,5.619 -0.604,6.108c0.039,0.401 1.858,1.143 2.18,-4.445l2.796,-3.313Z" style="fill:#be7e00;fill-opacity:0.99;"/><path d="M29.346,16.149c0.192,0.353 0.385,0.706 0.577,1.058c-0.192,-0.353 -0.385,-0.706 -0.577,-1.058Z" style="fill:#d8b43b;fill-opacity:0.22;"/></g></svg>